<mxfile host="app.diagrams.net" modified="2024-04-19T06:59:59.476Z" agent="Mozilla/5.0 (Windows NT 10.0; Win64; x64) AppleWebKit/537.36 (KHTML, like Gecko) Chrome/123.0.0.0 Safari/537.36" etag="VI2Pho7tAc-z-GPfvs4q" version="24.2.5" type="device">
  <diagram name="Page-1" id="5sKzT_0DQNSyHnKZz3Gd">
    <mxGraphModel dx="2625" dy="1393" grid="1" gridSize="10" guides="1" tooltips="1" connect="1" arrows="1" fold="1" page="1" pageScale="1" pageWidth="850" pageHeight="1100" math="0" shadow="0">
      <root>
        <mxCell id="0" />
        <mxCell id="1" parent="0" />
        <mxCell id="CA8oVotRneskB4zE-EfX-1" value="&lt;font style=&quot;font-size: 14px;&quot;&gt;Terminal&lt;/font&gt;" style="rounded=1;whiteSpace=wrap;html=1;" parent="1" vertex="1">
          <mxGeometry x="120" y="200" width="120" height="60" as="geometry" />
        </mxCell>
        <mxCell id="CA8oVotRneskB4zE-EfX-2" value="&lt;u&gt;Id_Terminal&lt;/u&gt;" style="ellipse;whiteSpace=wrap;html=1;" parent="1" vertex="1">
          <mxGeometry x="10" y="140" width="90" height="60" as="geometry" />
        </mxCell>
        <mxCell id="CA8oVotRneskB4zE-EfX-3" value="Nama_Terminal" style="ellipse;whiteSpace=wrap;html=1;" parent="1" vertex="1">
          <mxGeometry x="90" y="100" width="90" height="60" as="geometry" />
        </mxCell>
        <mxCell id="CA8oVotRneskB4zE-EfX-4" value="&lt;font style=&quot;font-size: 11px;&quot;&gt;Lokasi_Terminal&lt;/font&gt;" style="ellipse;whiteSpace=wrap;html=1;" parent="1" vertex="1">
          <mxGeometry x="190" y="100" width="90" height="60" as="geometry" />
        </mxCell>
        <mxCell id="CA8oVotRneskB4zE-EfX-5" value="" style="endArrow=none;html=1;rounded=0;exitX=1;exitY=1;exitDx=0;exitDy=0;entryX=0.5;entryY=0;entryDx=0;entryDy=0;" parent="1" source="CA8oVotRneskB4zE-EfX-2" target="CA8oVotRneskB4zE-EfX-1" edge="1">
          <mxGeometry width="50" height="50" relative="1" as="geometry">
            <mxPoint x="340" y="230" as="sourcePoint" />
            <mxPoint x="390" y="180" as="targetPoint" />
          </mxGeometry>
        </mxCell>
        <mxCell id="CA8oVotRneskB4zE-EfX-7" value="" style="endArrow=none;html=1;rounded=0;exitX=0.5;exitY=1;exitDx=0;exitDy=0;entryX=0.5;entryY=0;entryDx=0;entryDy=0;" parent="1" source="CA8oVotRneskB4zE-EfX-3" target="CA8oVotRneskB4zE-EfX-1" edge="1">
          <mxGeometry width="50" height="50" relative="1" as="geometry">
            <mxPoint x="340" y="230" as="sourcePoint" />
            <mxPoint x="390" y="180" as="targetPoint" />
          </mxGeometry>
        </mxCell>
        <mxCell id="CA8oVotRneskB4zE-EfX-8" value="" style="endArrow=none;html=1;rounded=0;exitX=0.5;exitY=1;exitDx=0;exitDy=0;entryX=0.5;entryY=0;entryDx=0;entryDy=0;" parent="1" source="CA8oVotRneskB4zE-EfX-4" target="CA8oVotRneskB4zE-EfX-1" edge="1">
          <mxGeometry width="50" height="50" relative="1" as="geometry">
            <mxPoint x="190" y="160" as="sourcePoint" />
            <mxPoint x="190" y="210" as="targetPoint" />
          </mxGeometry>
        </mxCell>
        <mxCell id="CA8oVotRneskB4zE-EfX-9" value="Perjalanan" style="rhombus;whiteSpace=wrap;html=1;" parent="1" vertex="1">
          <mxGeometry x="409" y="190" width="80" height="80" as="geometry" />
        </mxCell>
        <mxCell id="CA8oVotRneskB4zE-EfX-10" value="" style="endArrow=none;html=1;rounded=0;exitX=1;exitY=0.5;exitDx=0;exitDy=0;entryX=0;entryY=0.5;entryDx=0;entryDy=0;" parent="1" source="CA8oVotRneskB4zE-EfX-1" target="CA8oVotRneskB4zE-EfX-9" edge="1">
          <mxGeometry width="50" height="50" relative="1" as="geometry">
            <mxPoint x="400" y="220" as="sourcePoint" />
            <mxPoint x="450" y="170" as="targetPoint" />
          </mxGeometry>
        </mxCell>
        <mxCell id="CA8oVotRneskB4zE-EfX-11" value="&lt;u&gt;Id_Perjalanan&lt;/u&gt;" style="ellipse;whiteSpace=wrap;html=1;" parent="1" vertex="1">
          <mxGeometry x="309" y="150" width="90" height="60" as="geometry" />
        </mxCell>
        <mxCell id="CA8oVotRneskB4zE-EfX-12" value="Id_Bus" style="ellipse;whiteSpace=wrap;html=1;" parent="1" vertex="1">
          <mxGeometry x="369" y="35" width="70" height="50" as="geometry" />
        </mxCell>
        <mxCell id="CA8oVotRneskB4zE-EfX-13" value="Id_Perusahaan" style="ellipse;whiteSpace=wrap;html=1;" parent="1" vertex="1">
          <mxGeometry x="300" y="85" width="99" height="60" as="geometry" />
        </mxCell>
        <mxCell id="CA8oVotRneskB4zE-EfX-14" value="Id_Terminal Tujuan" style="ellipse;whiteSpace=wrap;html=1;" parent="1" vertex="1">
          <mxGeometry x="499" y="150" width="99" height="60" as="geometry" />
        </mxCell>
        <mxCell id="CA8oVotRneskB4zE-EfX-16" value="Id_Terminal Keberangkatan" style="ellipse;whiteSpace=wrap;html=1;" parent="1" vertex="1">
          <mxGeometry x="489" y="90" width="99" height="60" as="geometry" />
        </mxCell>
        <mxCell id="CA8oVotRneskB4zE-EfX-17" value="Tanggal" style="ellipse;whiteSpace=wrap;html=1;" parent="1" vertex="1">
          <mxGeometry x="449" y="35" width="70" height="50" as="geometry" />
        </mxCell>
        <mxCell id="CA8oVotRneskB4zE-EfX-18" value="" style="endArrow=none;html=1;rounded=0;exitX=1.005;exitY=0.585;exitDx=0;exitDy=0;exitPerimeter=0;entryX=0.5;entryY=0;entryDx=0;entryDy=0;" parent="1" source="CA8oVotRneskB4zE-EfX-11" target="CA8oVotRneskB4zE-EfX-9" edge="1">
          <mxGeometry width="50" height="50" relative="1" as="geometry">
            <mxPoint x="399" y="160" as="sourcePoint" />
            <mxPoint x="449" y="110" as="targetPoint" />
          </mxGeometry>
        </mxCell>
        <mxCell id="CA8oVotRneskB4zE-EfX-19" value="" style="endArrow=none;html=1;rounded=0;exitX=1;exitY=0.5;exitDx=0;exitDy=0;entryX=0.5;entryY=0;entryDx=0;entryDy=0;" parent="1" source="CA8oVotRneskB4zE-EfX-13" target="CA8oVotRneskB4zE-EfX-9" edge="1">
          <mxGeometry width="50" height="50" relative="1" as="geometry">
            <mxPoint x="409" y="195" as="sourcePoint" />
            <mxPoint x="459" y="200" as="targetPoint" />
          </mxGeometry>
        </mxCell>
        <mxCell id="CA8oVotRneskB4zE-EfX-20" value="" style="endArrow=none;html=1;rounded=0;exitX=0.5;exitY=1;exitDx=0;exitDy=0;entryX=0.5;entryY=0;entryDx=0;entryDy=0;" parent="1" source="CA8oVotRneskB4zE-EfX-12" target="CA8oVotRneskB4zE-EfX-9" edge="1">
          <mxGeometry width="50" height="50" relative="1" as="geometry">
            <mxPoint x="409" y="125" as="sourcePoint" />
            <mxPoint x="459" y="200" as="targetPoint" />
          </mxGeometry>
        </mxCell>
        <mxCell id="CA8oVotRneskB4zE-EfX-21" value="" style="endArrow=none;html=1;rounded=0;entryX=0.5;entryY=0;entryDx=0;entryDy=0;" parent="1" source="CA8oVotRneskB4zE-EfX-17" target="CA8oVotRneskB4zE-EfX-9" edge="1">
          <mxGeometry width="50" height="50" relative="1" as="geometry">
            <mxPoint x="414" y="95" as="sourcePoint" />
            <mxPoint x="459" y="200" as="targetPoint" />
          </mxGeometry>
        </mxCell>
        <mxCell id="CA8oVotRneskB4zE-EfX-22" value="" style="endArrow=none;html=1;rounded=0;entryX=0.5;entryY=0;entryDx=0;entryDy=0;exitX=0;exitY=1;exitDx=0;exitDy=0;" parent="1" source="CA8oVotRneskB4zE-EfX-16" target="CA8oVotRneskB4zE-EfX-9" edge="1">
          <mxGeometry width="50" height="50" relative="1" as="geometry">
            <mxPoint x="487" y="95" as="sourcePoint" />
            <mxPoint x="459" y="200" as="targetPoint" />
          </mxGeometry>
        </mxCell>
        <mxCell id="CA8oVotRneskB4zE-EfX-23" value="" style="endArrow=none;html=1;rounded=0;entryX=0.5;entryY=0;entryDx=0;entryDy=0;exitX=0.006;exitY=0.63;exitDx=0;exitDy=0;exitPerimeter=0;" parent="1" source="CA8oVotRneskB4zE-EfX-14" target="CA8oVotRneskB4zE-EfX-9" edge="1">
          <mxGeometry width="50" height="50" relative="1" as="geometry">
            <mxPoint x="513" y="151" as="sourcePoint" />
            <mxPoint x="459" y="200" as="targetPoint" />
          </mxGeometry>
        </mxCell>
        <mxCell id="CA8oVotRneskB4zE-EfX-24" value="&lt;font style=&quot;font-size: 14px;&quot;&gt;Perusahaan&lt;/font&gt;" style="rounded=1;whiteSpace=wrap;html=1;" parent="1" vertex="1">
          <mxGeometry x="721" y="200" width="120" height="60" as="geometry" />
        </mxCell>
        <mxCell id="CA8oVotRneskB4zE-EfX-25" value="&lt;u&gt;Id_Perusahaan&lt;/u&gt;" style="ellipse;whiteSpace=wrap;html=1;" parent="1" vertex="1">
          <mxGeometry x="643" y="120" width="99" height="60" as="geometry" />
        </mxCell>
        <mxCell id="CA8oVotRneskB4zE-EfX-26" value="&lt;font style=&quot;font-size: 11px;&quot;&gt;Nama_Perusahaan&lt;/font&gt;" style="ellipse;whiteSpace=wrap;html=1;" parent="1" vertex="1">
          <mxGeometry x="700" y="60" width="99" height="60" as="geometry" />
        </mxCell>
        <mxCell id="CA8oVotRneskB4zE-EfX-27" value="" style="endArrow=none;html=1;rounded=0;entryX=0.5;entryY=0;entryDx=0;entryDy=0;exitX=1;exitY=1;exitDx=0;exitDy=0;" parent="1" source="CA8oVotRneskB4zE-EfX-25" target="CA8oVotRneskB4zE-EfX-24" edge="1">
          <mxGeometry width="50" height="50" relative="1" as="geometry">
            <mxPoint x="585" y="151" as="sourcePoint" />
            <mxPoint x="530" y="200" as="targetPoint" />
          </mxGeometry>
        </mxCell>
        <mxCell id="CA8oVotRneskB4zE-EfX-28" value="" style="endArrow=none;html=1;rounded=0;entryX=0.459;entryY=0.998;entryDx=0;entryDy=0;exitX=0.5;exitY=0;exitDx=0;exitDy=0;entryPerimeter=0;" parent="1" source="CA8oVotRneskB4zE-EfX-24" target="CA8oVotRneskB4zE-EfX-26" edge="1">
          <mxGeometry width="50" height="50" relative="1" as="geometry">
            <mxPoint x="771" y="210" as="sourcePoint" />
            <mxPoint x="785" y="218" as="targetPoint" />
          </mxGeometry>
        </mxCell>
        <mxCell id="CA8oVotRneskB4zE-EfX-30" value="" style="endArrow=none;html=1;rounded=0;exitX=0;exitY=0.5;exitDx=0;exitDy=0;entryX=1;entryY=0.5;entryDx=0;entryDy=0;" parent="1" source="CA8oVotRneskB4zE-EfX-24" target="CA8oVotRneskB4zE-EfX-9" edge="1">
          <mxGeometry width="50" height="50" relative="1" as="geometry">
            <mxPoint x="250" y="240" as="sourcePoint" />
            <mxPoint x="419" y="240" as="targetPoint" />
          </mxGeometry>
        </mxCell>
        <mxCell id="CA8oVotRneskB4zE-EfX-31" value="&lt;font style=&quot;font-size: 14px;&quot;&gt;Bus&lt;/font&gt;" style="rounded=1;whiteSpace=wrap;html=1;" parent="1" vertex="1">
          <mxGeometry x="389" y="350" width="120" height="60" as="geometry" />
        </mxCell>
        <mxCell id="CA8oVotRneskB4zE-EfX-32" value="&lt;u&gt;Id_Bus&lt;/u&gt;" style="ellipse;whiteSpace=wrap;html=1;" parent="1" vertex="1">
          <mxGeometry x="560" y="390" width="90" height="60" as="geometry" />
        </mxCell>
        <mxCell id="CA8oVotRneskB4zE-EfX-33" value="Nama_Bus" style="ellipse;whiteSpace=wrap;html=1;" parent="1" vertex="1">
          <mxGeometry x="250" y="430" width="90" height="60" as="geometry" />
        </mxCell>
        <mxCell id="CA8oVotRneskB4zE-EfX-34" value="Id_Staff" style="ellipse;whiteSpace=wrap;html=1;" parent="1" vertex="1">
          <mxGeometry x="560" y="310" width="90" height="60" as="geometry" />
        </mxCell>
        <mxCell id="CA8oVotRneskB4zE-EfX-35" value="Jenis_Bus" style="ellipse;whiteSpace=wrap;html=1;" parent="1" vertex="1">
          <mxGeometry x="230" y="350" width="90" height="60" as="geometry" />
        </mxCell>
        <mxCell id="CA8oVotRneskB4zE-EfX-37" value="Merek_Kendaraan" style="ellipse;whiteSpace=wrap;html=1;" parent="1" vertex="1">
          <mxGeometry x="280" y="270" width="100" height="60" as="geometry" />
        </mxCell>
        <mxCell id="CA8oVotRneskB4zE-EfX-38" value="" style="endArrow=none;html=1;rounded=0;exitX=1;exitY=0.5;exitDx=0;exitDy=0;entryX=0;entryY=0.5;entryDx=0;entryDy=0;" parent="1" source="CA8oVotRneskB4zE-EfX-33" target="CA8oVotRneskB4zE-EfX-31" edge="1">
          <mxGeometry width="50" height="50" relative="1" as="geometry">
            <mxPoint x="580" y="340" as="sourcePoint" />
            <mxPoint x="630" y="290" as="targetPoint" />
          </mxGeometry>
        </mxCell>
        <mxCell id="CA8oVotRneskB4zE-EfX-39" value="" style="endArrow=none;html=1;rounded=0;exitX=1;exitY=1;exitDx=0;exitDy=0;entryX=0;entryY=0.5;entryDx=0;entryDy=0;" parent="1" source="CA8oVotRneskB4zE-EfX-35" target="CA8oVotRneskB4zE-EfX-31" edge="1">
          <mxGeometry width="50" height="50" relative="1" as="geometry">
            <mxPoint x="320" y="410" as="sourcePoint" />
            <mxPoint x="380" y="420" as="targetPoint" />
          </mxGeometry>
        </mxCell>
        <mxCell id="CA8oVotRneskB4zE-EfX-40" value="" style="endArrow=none;html=1;rounded=0;exitX=0.5;exitY=1;exitDx=0;exitDy=0;entryX=0;entryY=0.5;entryDx=0;entryDy=0;" parent="1" source="CA8oVotRneskB4zE-EfX-37" target="CA8oVotRneskB4zE-EfX-31" edge="1">
          <mxGeometry width="50" height="50" relative="1" as="geometry">
            <mxPoint x="327" y="351" as="sourcePoint" />
            <mxPoint x="385" y="420" as="targetPoint" />
          </mxGeometry>
        </mxCell>
        <mxCell id="CA8oVotRneskB4zE-EfX-41" value="" style="endArrow=none;html=1;rounded=0;exitX=0;exitY=1;exitDx=0;exitDy=0;entryX=1;entryY=0.5;entryDx=0;entryDy=0;" parent="1" source="CA8oVotRneskB4zE-EfX-34" target="CA8oVotRneskB4zE-EfX-31" edge="1">
          <mxGeometry width="50" height="50" relative="1" as="geometry">
            <mxPoint x="320" y="410" as="sourcePoint" />
            <mxPoint x="410" y="410" as="targetPoint" />
          </mxGeometry>
        </mxCell>
        <mxCell id="CA8oVotRneskB4zE-EfX-42" value="" style="endArrow=none;html=1;rounded=0;exitX=0;exitY=0;exitDx=0;exitDy=0;entryX=1;entryY=0.5;entryDx=0;entryDy=0;" parent="1" source="CA8oVotRneskB4zE-EfX-32" target="CA8oVotRneskB4zE-EfX-31" edge="1">
          <mxGeometry width="50" height="50" relative="1" as="geometry">
            <mxPoint x="347" y="469" as="sourcePoint" />
            <mxPoint x="520" y="400" as="targetPoint" />
          </mxGeometry>
        </mxCell>
        <mxCell id="CA8oVotRneskB4zE-EfX-43" value="" style="endArrow=none;html=1;rounded=0;entryX=0.5;entryY=1;entryDx=0;entryDy=0;exitX=0.5;exitY=0;exitDx=0;exitDy=0;" parent="1" source="CA8oVotRneskB4zE-EfX-31" target="CA8oVotRneskB4zE-EfX-9" edge="1">
          <mxGeometry width="50" height="50" relative="1" as="geometry">
            <mxPoint x="490" y="370" as="sourcePoint" />
            <mxPoint x="609" y="280" as="targetPoint" />
          </mxGeometry>
        </mxCell>
        <mxCell id="CA8oVotRneskB4zE-EfX-44" value="&lt;font style=&quot;font-size: 14px;&quot;&gt;Staff&lt;/font&gt;" style="rounded=1;whiteSpace=wrap;html=1;" parent="1" vertex="1">
          <mxGeometry x="389" y="530" width="120" height="60" as="geometry" />
        </mxCell>
        <mxCell id="CA8oVotRneskB4zE-EfX-45" value="" style="endArrow=none;html=1;rounded=0;entryX=0.5;entryY=1;entryDx=0;entryDy=0;exitX=0.5;exitY=0;exitDx=0;exitDy=0;" parent="1" source="CA8oVotRneskB4zE-EfX-44" target="CA8oVotRneskB4zE-EfX-31" edge="1">
          <mxGeometry width="50" height="50" relative="1" as="geometry">
            <mxPoint x="459" y="360" as="sourcePoint" />
            <mxPoint x="459" y="280" as="targetPoint" />
          </mxGeometry>
        </mxCell>
        <mxCell id="CA8oVotRneskB4zE-EfX-46" value="&lt;u&gt;Id_Staff&lt;/u&gt;" style="ellipse;whiteSpace=wrap;html=1;" parent="1" vertex="1">
          <mxGeometry x="560" y="560" width="90" height="60" as="geometry" />
        </mxCell>
        <mxCell id="CA8oVotRneskB4zE-EfX-47" value="Nama" style="ellipse;whiteSpace=wrap;html=1;" parent="1" vertex="1">
          <mxGeometry x="519" y="640" width="90" height="60" as="geometry" />
        </mxCell>
        <mxCell id="CA8oVotRneskB4zE-EfX-48" value="Tanggal_Lahir" style="ellipse;whiteSpace=wrap;html=1;" parent="1" vertex="1">
          <mxGeometry x="304.5" y="640" width="90" height="60" as="geometry" />
        </mxCell>
        <mxCell id="CA8oVotRneskB4zE-EfX-49" value="Alamat" style="ellipse;whiteSpace=wrap;html=1;" parent="1" vertex="1">
          <mxGeometry x="404" y="660" width="90" height="60" as="geometry" />
        </mxCell>
        <mxCell id="CA8oVotRneskB4zE-EfX-50" value="Crew_Bagian" style="ellipse;whiteSpace=wrap;html=1;" parent="1" vertex="1">
          <mxGeometry x="260" y="560" width="90" height="60" as="geometry" />
        </mxCell>
        <mxCell id="CA8oVotRneskB4zE-EfX-52" value="" style="endArrow=none;html=1;rounded=0;entryX=0.5;entryY=1;entryDx=0;entryDy=0;exitX=0.5;exitY=0;exitDx=0;exitDy=0;" parent="1" source="CA8oVotRneskB4zE-EfX-49" target="CA8oVotRneskB4zE-EfX-44" edge="1">
          <mxGeometry width="50" height="50" relative="1" as="geometry">
            <mxPoint x="459" y="540" as="sourcePoint" />
            <mxPoint x="459" y="420" as="targetPoint" />
          </mxGeometry>
        </mxCell>
        <mxCell id="CA8oVotRneskB4zE-EfX-54" value="" style="endArrow=none;html=1;rounded=0;entryX=0.5;entryY=1;entryDx=0;entryDy=0;exitX=1;exitY=0;exitDx=0;exitDy=0;" parent="1" source="CA8oVotRneskB4zE-EfX-48" target="CA8oVotRneskB4zE-EfX-44" edge="1">
          <mxGeometry width="50" height="50" relative="1" as="geometry">
            <mxPoint x="459" y="670" as="sourcePoint" />
            <mxPoint x="459" y="600" as="targetPoint" />
          </mxGeometry>
        </mxCell>
        <mxCell id="CA8oVotRneskB4zE-EfX-55" value="" style="endArrow=none;html=1;rounded=0;entryX=0.5;entryY=1;entryDx=0;entryDy=0;exitX=0.012;exitY=0.241;exitDx=0;exitDy=0;exitPerimeter=0;" parent="1" source="CA8oVotRneskB4zE-EfX-47" target="CA8oVotRneskB4zE-EfX-44" edge="1">
          <mxGeometry width="50" height="50" relative="1" as="geometry">
            <mxPoint x="391" y="659" as="sourcePoint" />
            <mxPoint x="459" y="600" as="targetPoint" />
          </mxGeometry>
        </mxCell>
        <mxCell id="CA8oVotRneskB4zE-EfX-56" value="" style="endArrow=none;html=1;rounded=0;entryX=0.5;entryY=1;entryDx=0;entryDy=0;exitX=0;exitY=0.5;exitDx=0;exitDy=0;" parent="1" source="CA8oVotRneskB4zE-EfX-46" target="CA8oVotRneskB4zE-EfX-44" edge="1">
          <mxGeometry width="50" height="50" relative="1" as="geometry">
            <mxPoint x="530" y="664" as="sourcePoint" />
            <mxPoint x="459" y="600" as="targetPoint" />
          </mxGeometry>
        </mxCell>
        <mxCell id="CA8oVotRneskB4zE-EfX-57" value="" style="endArrow=none;html=1;rounded=0;entryX=1;entryY=0.5;entryDx=0;entryDy=0;exitX=0.5;exitY=1;exitDx=0;exitDy=0;" parent="1" source="CA8oVotRneskB4zE-EfX-44" target="CA8oVotRneskB4zE-EfX-50" edge="1">
          <mxGeometry width="50" height="50" relative="1" as="geometry">
            <mxPoint x="570" y="600" as="sourcePoint" />
            <mxPoint x="459" y="600" as="targetPoint" />
          </mxGeometry>
        </mxCell>
        <mxCell id="WgFmfKrbXc6NQtSqG_zm-1" value="&lt;font style=&quot;font-size: 11px;&quot;&gt;Id_Pemilik&lt;/font&gt;" style="ellipse;whiteSpace=wrap;html=1;" vertex="1" parent="1">
          <mxGeometry x="800" y="70" width="99" height="60" as="geometry" />
        </mxCell>
        <mxCell id="WgFmfKrbXc6NQtSqG_zm-2" value="&lt;font style=&quot;font-size: 11px;&quot;&gt;Jumlah Bus&lt;/font&gt;" style="ellipse;whiteSpace=wrap;html=1;" vertex="1" parent="1">
          <mxGeometry x="870" y="140" width="99" height="60" as="geometry" />
        </mxCell>
        <mxCell id="WgFmfKrbXc6NQtSqG_zm-3" value="" style="endArrow=none;html=1;rounded=0;entryX=0.346;entryY=0.971;entryDx=0;entryDy=0;exitX=0.5;exitY=0;exitDx=0;exitDy=0;entryPerimeter=0;" edge="1" parent="1" source="CA8oVotRneskB4zE-EfX-24" target="WgFmfKrbXc6NQtSqG_zm-1">
          <mxGeometry width="50" height="50" relative="1" as="geometry">
            <mxPoint x="791" y="210" as="sourcePoint" />
            <mxPoint x="797" y="120" as="targetPoint" />
          </mxGeometry>
        </mxCell>
        <mxCell id="WgFmfKrbXc6NQtSqG_zm-4" value="" style="endArrow=none;html=1;rounded=0;entryX=0;entryY=0.5;entryDx=0;entryDy=0;" edge="1" parent="1" target="WgFmfKrbXc6NQtSqG_zm-2">
          <mxGeometry width="50" height="50" relative="1" as="geometry">
            <mxPoint x="781" y="200" as="sourcePoint" />
            <mxPoint x="861" y="190" as="targetPoint" />
          </mxGeometry>
        </mxCell>
        <mxCell id="WgFmfKrbXc6NQtSqG_zm-5" value="&lt;font style=&quot;font-size: 13px;&quot;&gt;Pemilik_Perusahaan&lt;/font&gt;" style="rounded=1;whiteSpace=wrap;html=1;" vertex="1" parent="1">
          <mxGeometry x="721" y="350" width="120" height="60" as="geometry" />
        </mxCell>
        <mxCell id="WgFmfKrbXc6NQtSqG_zm-6" value="" style="endArrow=none;html=1;rounded=0;entryX=0.5;entryY=1;entryDx=0;entryDy=0;exitX=0.5;exitY=0;exitDx=0;exitDy=0;" edge="1" parent="1" source="WgFmfKrbXc6NQtSqG_zm-5" target="CA8oVotRneskB4zE-EfX-24">
          <mxGeometry width="50" height="50" relative="1" as="geometry">
            <mxPoint x="459" y="360" as="sourcePoint" />
            <mxPoint x="459" y="280" as="targetPoint" />
          </mxGeometry>
        </mxCell>
        <mxCell id="WgFmfKrbXc6NQtSqG_zm-7" value="&lt;font style=&quot;font-size: 11px;&quot;&gt;&lt;u&gt;Id_Pemilik&lt;/u&gt;&lt;/font&gt;" style="ellipse;whiteSpace=wrap;html=1;" vertex="1" parent="1">
          <mxGeometry x="841" y="280" width="99" height="60" as="geometry" />
        </mxCell>
        <mxCell id="WgFmfKrbXc6NQtSqG_zm-8" value="" style="endArrow=none;html=1;rounded=0;entryX=0;entryY=1;entryDx=0;entryDy=0;exitX=1;exitY=0.5;exitDx=0;exitDy=0;" edge="1" target="WgFmfKrbXc6NQtSqG_zm-7" parent="1" source="WgFmfKrbXc6NQtSqG_zm-5">
          <mxGeometry width="50" height="50" relative="1" as="geometry">
            <mxPoint x="860.5" y="420" as="sourcePoint" />
            <mxPoint x="876.5" y="340" as="targetPoint" />
          </mxGeometry>
        </mxCell>
        <mxCell id="WgFmfKrbXc6NQtSqG_zm-9" value="&lt;font style=&quot;font-size: 11px;&quot;&gt;Nama_Pemilik&lt;/font&gt;" style="ellipse;whiteSpace=wrap;html=1;" vertex="1" parent="1">
          <mxGeometry x="930" y="340" width="99" height="60" as="geometry" />
        </mxCell>
        <mxCell id="WgFmfKrbXc6NQtSqG_zm-10" value="" style="endArrow=none;html=1;rounded=0;entryX=0;entryY=0.5;entryDx=0;entryDy=0;exitX=1;exitY=0.5;exitDx=0;exitDy=0;" edge="1" parent="1" source="WgFmfKrbXc6NQtSqG_zm-5" target="WgFmfKrbXc6NQtSqG_zm-9">
          <mxGeometry width="50" height="50" relative="1" as="geometry">
            <mxPoint x="851" y="390" as="sourcePoint" />
            <mxPoint x="924" y="358" as="targetPoint" />
          </mxGeometry>
        </mxCell>
        <mxCell id="WgFmfKrbXc6NQtSqG_zm-12" value="&lt;font style=&quot;font-size: 11px;&quot;&gt;Tgl Lahir/Berdiri&lt;/font&gt;" style="ellipse;whiteSpace=wrap;html=1;" vertex="1" parent="1">
          <mxGeometry x="930" y="410" width="99" height="60" as="geometry" />
        </mxCell>
        <mxCell id="WgFmfKrbXc6NQtSqG_zm-13" value="&lt;font style=&quot;font-size: 11px;&quot;&gt;Asal&lt;/font&gt;" style="ellipse;whiteSpace=wrap;html=1;" vertex="1" parent="1">
          <mxGeometry x="810" y="440" width="99" height="60" as="geometry" />
        </mxCell>
        <mxCell id="WgFmfKrbXc6NQtSqG_zm-14" value="" style="endArrow=none;html=1;rounded=0;entryX=0.058;entryY=0.272;entryDx=0;entryDy=0;exitX=1;exitY=0.5;exitDx=0;exitDy=0;entryPerimeter=0;" edge="1" parent="1" source="WgFmfKrbXc6NQtSqG_zm-5" target="WgFmfKrbXc6NQtSqG_zm-12">
          <mxGeometry width="50" height="50" relative="1" as="geometry">
            <mxPoint x="851" y="390" as="sourcePoint" />
            <mxPoint x="940" y="380" as="targetPoint" />
          </mxGeometry>
        </mxCell>
        <mxCell id="WgFmfKrbXc6NQtSqG_zm-15" value="" style="endArrow=none;html=1;rounded=0;entryX=0.5;entryY=0;entryDx=0;entryDy=0;exitX=1;exitY=0.5;exitDx=0;exitDy=0;" edge="1" parent="1" source="WgFmfKrbXc6NQtSqG_zm-5" target="WgFmfKrbXc6NQtSqG_zm-13">
          <mxGeometry width="50" height="50" relative="1" as="geometry">
            <mxPoint x="851" y="390" as="sourcePoint" />
            <mxPoint x="946" y="436" as="targetPoint" />
          </mxGeometry>
        </mxCell>
        <mxCell id="WgFmfKrbXc6NQtSqG_zm-16" value="1" style="text;html=1;align=center;verticalAlign=middle;resizable=0;points=[];autosize=1;strokeColor=none;fillColor=none;" vertex="1" parent="1">
          <mxGeometry x="240" y="200" width="30" height="30" as="geometry" />
        </mxCell>
        <mxCell id="WgFmfKrbXc6NQtSqG_zm-17" value="N" style="text;html=1;align=center;verticalAlign=middle;resizable=0;points=[];autosize=1;strokeColor=none;fillColor=none;" vertex="1" parent="1">
          <mxGeometry x="380" y="200" width="30" height="30" as="geometry" />
        </mxCell>
        <mxCell id="WgFmfKrbXc6NQtSqG_zm-18" value="N" style="text;html=1;align=center;verticalAlign=middle;resizable=0;points=[];autosize=1;strokeColor=none;fillColor=none;" vertex="1" parent="1">
          <mxGeometry x="489" y="200" width="30" height="30" as="geometry" />
        </mxCell>
        <mxCell id="WgFmfKrbXc6NQtSqG_zm-19" value="N" style="text;html=1;align=center;verticalAlign=middle;resizable=0;points=[];autosize=1;strokeColor=none;fillColor=none;" vertex="1" parent="1">
          <mxGeometry x="449" y="270" width="30" height="30" as="geometry" />
        </mxCell>
        <mxCell id="WgFmfKrbXc6NQtSqG_zm-20" value="1" style="text;html=1;align=center;verticalAlign=middle;resizable=0;points=[];autosize=1;strokeColor=none;fillColor=none;" vertex="1" parent="1">
          <mxGeometry x="691" y="200" width="30" height="30" as="geometry" />
        </mxCell>
        <mxCell id="WgFmfKrbXc6NQtSqG_zm-21" value="1" style="text;html=1;align=center;verticalAlign=middle;resizable=0;points=[];autosize=1;strokeColor=none;fillColor=none;" vertex="1" parent="1">
          <mxGeometry x="780" y="260" width="30" height="30" as="geometry" />
        </mxCell>
        <mxCell id="WgFmfKrbXc6NQtSqG_zm-22" value="1" style="text;html=1;align=center;verticalAlign=middle;resizable=0;points=[];autosize=1;strokeColor=none;fillColor=none;" vertex="1" parent="1">
          <mxGeometry x="780" y="320" width="30" height="30" as="geometry" />
        </mxCell>
        <mxCell id="WgFmfKrbXc6NQtSqG_zm-23" value="1" style="text;html=1;align=center;verticalAlign=middle;resizable=0;points=[];autosize=1;strokeColor=none;fillColor=none;" vertex="1" parent="1">
          <mxGeometry x="449" y="320" width="30" height="30" as="geometry" />
        </mxCell>
        <mxCell id="WgFmfKrbXc6NQtSqG_zm-24" value="1" style="text;html=1;align=center;verticalAlign=middle;resizable=0;points=[];autosize=1;strokeColor=none;fillColor=none;" vertex="1" parent="1">
          <mxGeometry x="449" y="410" width="30" height="30" as="geometry" />
        </mxCell>
        <mxCell id="WgFmfKrbXc6NQtSqG_zm-25" value="N" style="text;html=1;align=center;verticalAlign=middle;resizable=0;points=[];autosize=1;strokeColor=none;fillColor=none;" vertex="1" parent="1">
          <mxGeometry x="449" y="500" width="30" height="30" as="geometry" />
        </mxCell>
      </root>
    </mxGraphModel>
  </diagram>
</mxfile>
